<svg xmlns="http://www.w3.org/2000/svg" viewBox="0 0 64 64" width="64" height="64" role="img" aria-label="TP24">
  <defs>
    <linearGradient id="fdrop" x1="0" y1="0" x2="0" y2="1">
      <stop offset="0" stop-color="#E1523D"/>
      <stop offset="1" stop-color="#C13A28"/>
    </linearGradient>
  </defs>
  <rect width="64" height="64" rx="14" fill="#1B3A5C"/>
  <!-- Damla -->
  <path d="M32 8 C32 8 52 30 52 42 A20 20 0 1 1 12 42 C12 30 32 8 32 8 Z" fill="url(#fdrop)"/>
  <!-- Pompa -->
  <g fill="#fff">
    <rect x="24" y="34" width="13" height="18" rx="2.5"/>
    <path d="M37 36 h4 a3 3 0 0 1 3 3 v7 a2.5 2.5 0 0 1-5 0 v-5 h-2 z"/>
    <rect x="27" y="37" width="7" height="5" rx="1" fill="#1B3A5C"/>
  </g>
</svg>
